<svg width="11" height="11" viewBox="0 0 11 11" fill="none" xmlns="http://www.w3.org/2000/svg">
<path d="M7.65341 1.7429C8.21035 1.77369 8.73255 2.02336 9.10621 2.4375C9.47987 2.85164 9.67471 3.39668 9.64825 3.95384C9.64825 5.25549 8.52456 6.05504 7.44621 7.0139C6.38184 7.96429 5.80856 8.48377 5.62297 8.60368C5.42086 8.47275 4.71495 7.83125 3.79973 7.0139C2.71672 6.05123 1.59769 5.24405 1.59769 3.95384C1.57123 3.39668 1.76607 2.85164 2.13973 2.4375C2.51339 2.02336 3.03559 1.77369 3.59253 1.7429C3.90106 1.73355 4.20673 1.80442 4.47967 1.94857C4.75261 2.09273 4.98347 2.30524 5.14968 2.56533C5.5056 3.0632 5.56492 3.31234 5.62424 3.31234C5.68356 3.31234 5.74203 3.0632 6.09456 2.56406C6.25984 2.30277 6.49078 2.08941 6.76433 1.94532C7.03788 1.80122 7.34444 1.73143 7.65341 1.7429ZM7.65341 0.895476C7.26865 0.883157 6.88606 0.957797 6.53415 1.11384C6.18223 1.26988 5.87005 1.5033 5.62085 1.79672C5.37187 1.50415 5.06033 1.27127 4.70925 1.11528C4.35818 0.959286 3.97654 0.884168 3.59253 0.895476C2.81073 0.926048 2.07283 1.26495 1.54021 1.83807C1.00758 2.41119 0.723564 3.17189 0.75026 3.95384C0.75026 5.48345 1.83073 6.42282 2.87519 7.33084C2.9951 7.43508 3.11628 7.54016 3.23661 7.64736L3.67177 8.03633C4.14634 8.48791 4.64388 8.91473 5.16239 9.31509C5.29958 9.40392 5.45953 9.45118 5.62297 9.45118C5.78641 9.45118 5.94636 9.40392 6.08355 9.31509C6.61857 8.90251 7.13141 8.46194 7.61993 7.99523L8.0106 7.64609C8.13475 7.53592 8.26059 7.42618 8.38559 7.31813C9.37453 6.46011 10.4957 5.48769 10.4957 3.95384C10.5224 3.17189 10.2384 2.41119 9.70573 1.83807C9.17311 1.26495 8.43521 0.926048 7.65341 0.895476Z" fill="#262626"/>
</svg>
