<svg width="11" height="11" viewBox="0 0 11 11" fill="none" xmlns="http://www.w3.org/2000/svg">
<rect width="10.1691" height="10.1691" transform="translate(0.538574 0.158569)" fill="white"/>
<path d="M9.41019 2.72856C9.7227 3.07492 9.89968 3.52048 9.91198 3.98367L9.58579 4.09802L9.67579 4.14555C9.65485 4.15314 9.63302 4.16095 9.61033 4.16898C9.44066 4.22901 9.24316 4.29439 9.03087 4.36468C8.83934 4.42808 8.63577 4.49548 8.42971 4.56653C8.01081 4.71097 7.59037 4.86775 7.33171 5.01384C7.26586 5.05103 7.20351 5.09134 7.15205 5.13488C7.10476 5.17489 7.04495 5.23545 7.01579 5.31828C7.01186 5.32946 7.00845 5.34115 7.00573 5.35326C6.97119 5.36923 6.9379 5.38844 6.90606 5.41038C6.76642 5.50662 6.65225 5.65573 6.55769 5.8182C6.36739 6.14514 6.21506 6.59975 6.09804 7.04623C5.97996 7.49676 5.89354 7.95609 5.8404 8.30292C5.81384 8.47628 5.79526 8.62365 5.78523 8.72937C5.78479 8.73404 5.78436 8.73865 5.78394 8.74322C5.77174 8.75728 5.7605 8.77402 5.75103 8.79392C5.7019 8.89723 5.75084 8.98434 5.76119 9.00173C5.78998 9.0501 5.83054 9.07629 5.84335 9.08444C5.86949 9.10106 5.90037 9.11517 5.93527 9.12593L5.99842 9.16683L6.03146 9.14548C6.0744 9.15022 6.12105 9.15055 6.17057 9.14553C6.41033 9.12123 6.72988 8.97342 7.12378 8.55835C7.13774 8.57681 7.15802 8.59875 7.18563 8.61677C7.21502 8.63596 7.26302 8.65716 7.32294 8.65346C7.00615 8.93274 6.68029 9.20166 6.34588 9.45981C6.24192 9.52526 6.12153 9.56003 5.99857 9.56003C5.87563 9.56003 5.75526 9.52527 5.65131 9.45985C5.1281 9.05544 4.62597 8.62446 4.14691 8.1686L4.14698 8.16853L4.14193 8.16401L3.69557 7.76502L3.69529 7.76478C3.58099 7.66296 3.46602 7.56304 3.35316 7.46495C3.34294 7.45607 3.33275 7.44721 3.32257 7.43837C2.23661 6.49426 1.21765 5.59326 1.21765 4.13839H1.21778L1.21753 4.13097C1.1921 3.3863 1.46258 2.66185 1.96982 2.11605C2.47682 1.5705 3.17912 1.2478 3.92327 1.21843C4.28427 1.20795 4.64302 1.27865 4.97307 1.4253C5.30344 1.57209 5.5966 1.79123 5.8309 2.06654L5.99657 2.2612L6.16203 2.06637C6.39649 1.79031 6.6902 1.5707 7.0213 1.42389C7.35217 1.27718 7.71185 1.20695 8.07359 1.21842C8.81785 1.24772 9.52026 1.57044 10.0273 2.11605C10.4864 2.61001 10.7515 3.25028 10.7789 3.91946C10.7631 3.87228 10.742 3.83088 10.7228 3.79828C10.6627 3.69623 10.5723 3.5951 10.5027 3.51713C10.5 3.51415 10.4974 3.51121 10.4948 3.5083C10.4456 3.45327 10.4085 3.41085 10.3824 3.37748C10.4216 3.33418 10.4496 3.27908 10.4579 3.21274C10.4695 3.11871 10.436 3.03765 10.4094 2.98707C10.3587 2.89109 10.2717 2.7951 10.2049 2.72427C10.243 2.68811 10.2782 2.63225 10.2755 2.5511C10.2721 2.44977 10.2055 2.38929 10.1906 2.3758L10.1905 2.37569C10.1447 2.33406 10.0833 2.30436 10.0391 2.28528C9.98787 2.26322 9.92903 2.24277 9.86991 2.22624C9.81106 2.20978 9.74707 2.19584 9.68589 2.18876C9.63097 2.1824 9.55349 2.17831 9.48091 2.19998C9.44277 2.21137 9.38799 2.23518 9.34373 2.28733C9.29455 2.34528 9.27734 2.41578 9.28297 2.48098C9.29205 2.58636 9.35948 2.67235 9.41019 2.72856ZM7.35473 5.53741L7.41884 5.35489C7.42352 5.36462 7.42766 5.37614 7.43029 5.38944C7.43628 5.41976 7.43172 5.44567 7.42577 5.46258C7.42095 5.47628 7.41576 5.48297 7.41573 5.483C7.41571 5.48303 7.41998 5.47751 7.43277 5.46668C7.4554 5.44754 7.492 5.42247 7.54546 5.39228C7.76405 5.26881 8.1469 5.12379 8.57139 4.97742C8.76294 4.91137 8.9657 4.84417 9.15951 4.77993C9.31352 4.72889 9.46187 4.67972 9.59444 4.63449C9.4496 4.88962 9.32074 5.11596 9.19673 5.32335C8.8309 5.71072 8.41851 6.14189 8.01115 6.56435C7.46757 7.12807 6.93356 7.67561 6.53189 8.08198C6.43817 8.17681 6.35177 8.26382 6.27423 8.34147C6.32597 8.00918 6.40814 7.57739 6.51847 7.15643C6.63291 6.7198 6.77343 6.31153 6.93332 6.03683C7.01384 5.89849 7.0891 5.81208 7.15271 5.76824C7.20728 5.73063 7.24389 5.7288 7.28272 5.74244L7.35473 5.53741ZM7.55252 8.37591C7.56419 8.27684 7.57063 8.10631 7.57184 7.83465C7.675 7.74381 7.7407 7.68847 7.78152 7.65579C7.78339 7.65546 7.78512 7.6551 7.7867 7.65471C7.80274 7.64874 7.82715 7.6367 7.83579 7.63147C7.84134 7.62781 7.85049 7.62123 7.85415 7.61838C7.86573 7.60918 7.87399 7.60057 7.8754 7.59909L7.87555 7.59894C7.88321 7.591 7.88894 7.58377 7.88968 7.58284L7.88999 7.58246C7.89088 7.58137 7.89311 7.57863 7.89617 7.57451C7.90841 7.55984 7.94249 7.52011 8.02218 7.43166C8.118 7.34627 8.20787 7.26323 8.29263 7.18183C8.34233 7.14628 8.3898 7.1175 8.4398 7.08751C8.4445 7.0847 8.44921 7.08187 8.45396 7.07903C8.59303 6.99575 8.75246 6.90027 8.98448 6.6728L8.99387 6.6636L9.00208 6.65333C9.15815 6.45813 9.64957 5.79991 10.0216 5.21664C10.1086 5.08017 10.1917 4.94388 10.2631 4.81619C10.4993 4.55729 10.6723 4.35911 10.7397 4.26376L10.7399 4.26392L10.7458 4.25456C10.7597 4.23269 10.7706 4.21077 10.7791 4.18895C10.7549 5.61891 9.7075 6.54234 8.69015 7.42501C8.5615 7.53621 8.4317 7.64941 8.30346 7.7632L8.30289 7.76371L7.90216 8.12184L7.90208 8.12175L7.89686 8.12674C7.77849 8.23982 7.65872 8.35139 7.53757 8.46142C7.53779 8.46056 7.53799 8.45977 7.53817 8.45903C7.54475 8.43281 7.54918 8.40422 7.55252 8.37591ZM10.3408 3.31386C10.3408 3.31388 10.3412 3.31462 10.3416 3.31603C10.341 3.31455 10.3407 3.31384 10.3408 3.31386Z" fill="#FF0014" stroke="#FF0014" stroke-width="0.434629"/>
</svg>
