<svg width="21" height="20" viewBox="0 0 21 20" fill="none" xmlns="http://www.w3.org/2000/svg">
<path d="M13.6795 9.1166C13.484 9.1166 13.2928 9.1746 13.1301 9.28327C12.9675 9.39194 12.8407 9.54639 12.7659 9.7271C12.691 9.9078 12.6714 10.1066 12.7096 10.2985C12.7478 10.4903 12.842 10.6665 12.9803 10.8048C13.1186 10.9431 13.2948 11.0373 13.4866 11.0755C13.6785 11.1137 13.8773 11.0941 14.058 11.0192C14.2387 10.9444 14.3932 10.8176 14.5018 10.655C14.6105 10.4923 14.6685 10.3011 14.6685 10.1055C14.6685 9.84326 14.5643 9.59172 14.3788 9.40626C14.1934 9.22079 13.9418 9.1166 13.6795 9.1166ZM8.17127 10.1055C8.17127 9.90992 8.11325 9.71868 8.00454 9.55603C7.89584 9.39338 7.74133 9.26663 7.56058 9.1918C7.37982 9.11697 7.18093 9.09744 6.98907 9.13567C6.79721 9.17389 6.621 9.26817 6.48273 9.40656C6.34446 9.54495 6.25033 9.72124 6.21227 9.91314C6.17421 10.105 6.19391 10.3039 6.26889 10.4846C6.34388 10.6653 6.47076 10.8197 6.63351 10.9282C6.79625 11.0368 6.98754 11.0947 7.18317 11.0945C7.44531 11.0943 7.69663 10.99 7.88191 10.8045C8.06719 10.6191 8.17127 10.3677 8.17127 10.1055ZM12.5465 12.8512C12.2769 13.1412 11.9504 13.3726 11.5875 13.531C11.2245 13.6895 10.8329 13.7715 10.4369 13.7721C10.0409 13.7726 9.649 13.6917 9.28562 13.5343C8.92224 13.3769 8.59513 13.1464 8.32465 12.8571C8.18351 12.6822 7.97864 12.5704 7.75511 12.5465C7.53159 12.5226 7.30772 12.5885 7.13275 12.7296C6.95778 12.8708 6.84604 13.0756 6.82212 13.2991C6.79821 13.5227 6.86406 13.7465 7.00521 13.9215C7.43438 14.4074 7.96195 14.7965 8.55292 15.063C9.14389 15.3295 9.78477 15.4673 10.4331 15.4673C11.0813 15.4673 11.7222 15.3295 12.3132 15.063C12.9042 14.7965 13.4317 14.4074 13.8609 13.9215C13.9965 13.7467 14.0583 13.5258 14.0332 13.306C14.0081 13.0863 13.898 12.885 13.7265 12.7453C13.555 12.6055 13.3357 12.5384 13.1154 12.5582C12.8951 12.578 12.6912 12.6832 12.5474 12.8512H12.5465ZM10.4339 0.223694C8.50644 0.223694 6.62226 0.795253 5.01964 1.86609C3.41701 2.93693 2.16791 4.45896 1.43031 6.2397C0.692699 8.02045 0.499707 9.97993 0.875736 11.8704C1.25177 13.7608 2.17993 15.4972 3.54285 16.8602C4.90577 18.2231 6.64224 19.1512 8.53266 19.5273C10.4231 19.9033 12.3826 19.7103 14.1633 18.9727C15.9441 18.2351 17.4661 16.986 18.5369 15.3834C19.6078 13.7808 20.1793 11.8966 20.1793 9.96911C20.1764 7.38536 19.1487 4.90827 17.3217 3.08128C15.4947 1.25429 13.0177 0.22661 10.4339 0.223694ZM10.4339 18.0197C8.84165 18.0197 7.28516 17.5475 5.96125 16.6629C4.63734 15.7783 3.60548 14.521 2.99615 13.0499C2.38682 11.5789 2.22739 9.96018 2.53803 8.39853C2.84866 6.83687 3.6154 5.4024 4.74129 4.27651C5.86718 3.15061 7.30166 2.38387 8.86331 2.07324C10.425 1.76261 12.0437 1.92203 13.5147 2.53136C14.9858 3.14069 16.2431 4.17255 17.1277 5.49646C18.0123 6.82037 18.4845 8.37686 18.4845 9.96911C18.4822 12.1036 17.6333 14.15 16.124 15.6592C14.6147 17.1685 12.5684 18.0174 10.4339 18.0197Z" fill="black"/>
</svg>
